<?xml version='1.0' encoding='UTF-8' standalone='no'?>
<!-- Created with Fritzing (http://www.fritzing.org/) -->
<svg xmlns:svg='http://www.w3.org/2000/svg' xmlns='http://www.w3.org/2000/svg' version='1.2' baseProfile='tiny' x='0in' y='0in' width='2.7407in' height='2.47823in' viewBox='0 0 197.33 178.433' >
<g partID='58180'><g transform='translate(151.55,165.978)' ><g transform='matrix(-1,0,0,-1,0,0)'  ><g xmlns="http://www.w3.org/2000/svg" id="schematic">
<line stroke-linecap="round" stroke="#000000" stroke-width="0.432002" xmlns="http://www.w3.org/2000/svg" x1="7.55002" y1="3.096" x2="8.63003" class="other" y2="0.216"/>
<line stroke-linecap="round" stroke="#000000" stroke-width="0.432002" xmlns="http://www.w3.org/2000/svg" x1="8.63003" y1="0.216" x2="10.43" class="other" y2="5.976"/>
<line stroke-linecap="round" stroke="#000000" stroke-width="0.432002" xmlns="http://www.w3.org/2000/svg" x1="10.43" y1="5.976" x2="12.23" class="other" y2="0.216"/>
<line stroke-linecap="round" stroke="#000000" stroke-width="0.432002" xmlns="http://www.w3.org/2000/svg" x1="12.23" y1="0.216" x2="14.03" class="other" y2="5.976"/>
<line stroke-linecap="round" stroke="#000000" stroke-width="0.432002" xmlns="http://www.w3.org/2000/svg" x1="14.03" y1="5.976" x2="15.8301" class="other" y2="0.216"/>
<line stroke-linecap="round" stroke="#000000" stroke-width="0.432002" xmlns="http://www.w3.org/2000/svg" x1="15.8301" y1="0.216" x2="17.6301" class="other" y2="5.976"/>
<line stroke-linecap="round" stroke="#000000" stroke-width="0.432002" xmlns="http://www.w3.org/2000/svg" x1="17.6301" y1="5.976" x2="19.4301" class="other" y2="0.216"/>
<line stroke-linecap="round" stroke="#000000" stroke-width="0.432002" xmlns="http://www.w3.org/2000/svg" x1="19.4301" y1="0.216" x2="21.2301" class="other" y2="5.976"/>
<line stroke-linecap="round" stroke="#000000" stroke-width="0.432002" xmlns="http://www.w3.org/2000/svg" x1="21.2301" y1="5.976" x2="21.9501" class="other" y2="3.096"/>
<line stroke-linecap="round" connectorname="2" stroke="#787878" stroke-width="0.700001" xmlns="http://www.w3.org/2000/svg" id="connector1pin" x1="29.1502" y1="3.096" x2="21.9501" class="pin" y2="3.096"/>
<g width="0.000283466" x="29.1502" y="3.096" stroke="none" stroke-width="0" xmlns="http://www.w3.org/2000/svg" id="connector1terminal" fill="none" class="terminal" height="0.000283465"/>
<text x="25.5501" y="2.046" text-anchor="middle" stroke="none" stroke-width="0" xmlns="http://www.w3.org/2000/svg" font-size="2.50001" fill="#8c8c8c" class="text" font-family="'Droid Sans'">2</text>
<line stroke-linecap="round" connectorname="1" stroke="#787878" stroke-width="0.700001" xmlns="http://www.w3.org/2000/svg" id="connector0pin" x1="0.350001" y1="3.096" x2="7.55002" class="pin" y2="3.096"/>
<g width="0.000283466" x="0.350001" y="3.096" stroke="none" stroke-width="0" xmlns="http://www.w3.org/2000/svg" id="connector0terminal" fill="none" class="terminal" height="0.000283465"/>
<text x="3.95001" y="2.046" text-anchor="middle" stroke="none" stroke-width="0" xmlns="http://www.w3.org/2000/svg" font-size="2.50001" fill="#8c8c8c" class="text" font-family="'Droid Sans'">1</text>
</g>
</g></g></g><g partID='58150'><g transform='translate(0,11.6818)' ><g id="schematic">
<rect width="78.3" stroke-linecap="round" x="14.85" y="14.85" stroke="#000000" stroke-width="0.9" fill="#FFFFFF" class="interior rect" height="135.9"/>
<line stroke-linecap="round" stroke="#787878" stroke-width="0.699999" x1="93.2499" id="connector61pin" y1="28.8" x2="107.65" fill="none" class="pin" y2="28.8"/>
<text x="91.8499" y="29.4999" text-anchor="end" stroke="none" stroke-width="0" font-size="3.49999" fill="#8c8c8c" class="text" font-family="'Droid Sans'">D0/RX</text>
<g width="0.699999" x="107.65" y="28.4499" stroke="none" stroke-width="0" id="connector61terminal" fill="none" class="terminal" height="0.699999"/>
<line stroke-linecap="round" stroke="#787878" stroke-width="0.699999" x1="93.2499" id="connector62pin" y1="36" x2="107.65" fill="none" class="pin" y2="36"/>
<text x="91.8499" y="36.6999" text-anchor="end" stroke="none" stroke-width="0" font-size="3.49999" fill="#8c8c8c" class="text" font-family="'Droid Sans'">D1/TX</text>
<g width="0.699999" x="107.65" y="35.6499" stroke="none" stroke-width="0" id="connector62terminal" fill="none" class="terminal" height="0.699999"/>
<line stroke-linecap="round" stroke="#787878" stroke-width="0.699999" x1="93.2499" id="connector63pin" y1="43.2" x2="107.65" fill="none" class="pin" y2="43.2"/>
<text x="91.8499" y="43.8999" text-anchor="end" stroke="none" stroke-width="0" font-size="3.49999" fill="#8c8c8c" class="text" font-family="'Droid Sans'">D2</text>
<g width="0.699999" x="107.65" y="42.8499" stroke="none" stroke-width="0" id="connector63terminal" fill="none" class="terminal" height="0.699999"/>
<line stroke-linecap="round" stroke="#787878" stroke-width="0.699999" x1="93.2499" id="connector64pin" y1="50.4" x2="107.65" fill="none" class="pin" y2="50.4"/>
<text x="91.8499" y="51.0999" text-anchor="end" stroke="none" stroke-width="0" font-size="3.49999" fill="#8c8c8c" class="text" font-family="'Droid Sans'">D3 PWM</text>
<g width="0.699999" x="107.65" y="50.0499" stroke="none" stroke-width="0" id="connector64terminal" fill="none" class="terminal" height="0.699999"/>
<line stroke-linecap="round" stroke="#787878" stroke-width="0.699999" x1="93.2499" id="connector65pin" y1="57.6" x2="107.65" fill="none" class="pin" y2="57.6"/>
<text x="91.8499" y="58.2999" text-anchor="end" stroke="none" stroke-width="0" font-size="3.49999" fill="#8c8c8c" class="text" font-family="'Droid Sans'">D4</text>
<g width="0.699999" x="107.65" y="57.2499" stroke="none" stroke-width="0" id="connector65terminal" fill="none" class="terminal" height="0.699999"/>
<line stroke-linecap="round" stroke="#787878" stroke-width="0.699999" x1="93.2499" id="connector66pin" y1="64.8" x2="107.65" fill="none" class="pin" y2="64.8"/>
<text x="91.8499" y="65.4999" text-anchor="end" stroke="none" stroke-width="0" font-size="3.49999" fill="#8c8c8c" class="text" font-family="'Droid Sans'">D5 PWM</text>
<g width="0.699999" x="107.65" y="64.4499" stroke="none" stroke-width="0" id="connector66terminal" fill="none" class="terminal" height="0.699999"/>
<line stroke-linecap="round" stroke="#787878" stroke-width="0.699999" x1="93.2499" id="connector67pin" y1="72" x2="107.65" fill="none" class="pin" y2="72"/>
<text x="91.8499" y="72.6999" text-anchor="end" stroke="none" stroke-width="0" font-size="3.49999" fill="#8c8c8c" class="text" font-family="'Droid Sans'">D6 PWM</text>
<g width="0.699999" x="107.65" y="71.6499" stroke="none" stroke-width="0" id="connector67terminal" fill="none" class="terminal" height="0.699999"/>
<line stroke-linecap="round" stroke="#787878" stroke-width="0.699999" x1="93.2499" id="connector68pin" y1="79.2" x2="107.65" fill="none" class="pin" y2="79.2"/>
<text x="91.8499" y="79.8999" text-anchor="end" stroke="none" stroke-width="0" font-size="3.49999" fill="#8c8c8c" class="text" font-family="'Droid Sans'">D7</text>
<g width="0.699999" x="107.65" y="78.8499" stroke="none" stroke-width="0" id="connector68terminal" fill="none" class="terminal" height="0.699999"/>
<line stroke-linecap="round" stroke="#787878" stroke-width="0.699999" x1="93.2499" id="connector51pin" y1="86.4" x2="107.65" fill="none" class="pin" y2="86.4"/>
<text x="91.8499" y="87.0999" text-anchor="end" stroke="none" stroke-width="0" font-size="3.49999" fill="#8c8c8c" class="text" font-family="'Droid Sans'">D8</text>
<g width="0.699999" x="107.65" y="86.0499" stroke="none" stroke-width="0" id="connector51terminal" fill="none" class="terminal" height="0.699999"/>
<line stroke-linecap="round" stroke="#787878" stroke-width="0.699999" x1="93.2499" id="connector52pin" y1="93.6" x2="107.65" fill="none" class="pin" y2="93.6"/>
<text x="91.8499" y="94.2999" text-anchor="end" stroke="none" stroke-width="0" font-size="3.49999" fill="#8c8c8c" class="text" font-family="'Droid Sans'">D9 PWM</text>
<g width="0.699999" x="107.65" y="93.2499" stroke="none" stroke-width="0" id="connector52terminal" fill="none" class="terminal" height="0.699999"/>
<line stroke-linecap="round" stroke="#787878" stroke-width="0.699999" x1="93.2499" id="connector53pin" y1="100.8" x2="107.65" fill="none" class="pin" y2="100.8"/>
<text x="91.8499" y="101.5" text-anchor="end" stroke="none" stroke-width="0" font-size="3.49999" fill="#8c8c8c" class="text" font-family="'Droid Sans'">D10 PWM/SS</text>
<g width="0.699999" x="107.65" y="100.45" stroke="none" stroke-width="0" id="connector53terminal" fill="none" class="terminal" height="0.699999"/>
<line stroke-linecap="round" stroke="#787878" stroke-width="0.699999" x1="93.2499" id="connector54pin" y1="108" x2="107.65" fill="none" class="pin" y2="108"/>
<text x="91.8499" y="108.7" text-anchor="end" stroke="none" stroke-width="0" font-size="3.49999" fill="#8c8c8c" class="text" font-family="'Droid Sans'">D11 PWM/MOSI</text>
<g width="0.699999" x="107.65" y="107.65" stroke="none" stroke-width="0" id="connector54terminal" fill="none" class="terminal" height="0.699999"/>
<line stroke-linecap="round" stroke="#787878" stroke-width="0.699999" x1="93.2499" id="connector55pin" y1="115.2" x2="107.65" fill="none" class="pin" y2="115.2"/>
<text x="91.8499" y="115.9" text-anchor="end" stroke="none" stroke-width="0" font-size="3.49999" fill="#8c8c8c" class="text" font-family="'Droid Sans'">D12/MISO</text>
<g width="0.699999" x="107.65" y="114.85" stroke="none" stroke-width="0" id="connector55terminal" fill="none" class="terminal" height="0.699999"/>
<line stroke-linecap="round" stroke="none" stroke-width="0" x1="93.2499" id="connector41pin" y1="122.4" x2="107.65" fill="none" class="pin" y2="122.4"/>
<rect width="0.699999" x="107.65" y="122.05" stroke="none" stroke-width="0" id="connector41terminal" fill="none" class="terminal" height="0.699999"/>
<line stroke-linecap="round" stroke="#787878" stroke-width="0.699999" x1="93.2499" id="connector56pin" y1="122.4" x2="107.65" fill="none" class="pin" y2="122.4"/>
<text x="91.8499" y="123.1" text-anchor="end" stroke="none" stroke-width="0" font-size="3.49999" fill="#8c8c8c" class="text" font-family="'Droid Sans'">D13/SCK</text>
<g width="0.699999" x="107.65" y="122.05" stroke="none" stroke-width="0" id="connector56terminal" fill="none" class="terminal" height="0.699999"/>
<line stroke-linecap="round" stroke="none" stroke-width="0" x1="0.349999" id="connector43pin" y1="28.8" x2="14.75" fill="none" class="pin" y2="28.8"/>
<rect width="0.699999" x="-0.349999" y="28.4499" stroke="none" stroke-width="0" id="connector43terminal" fill="none" class="terminal" height="0.699999"/>
<line stroke-linecap="round" stroke="#787878" stroke-width="0.699999" x1="0.349999" id="connector85pin" y1="28.8" x2="14.75" fill="none" class="pin" y2="28.8"/>
<text x="16.15" y="29.4999" text-anchor="start" stroke="none" stroke-width="0" font-size="3.49999" fill="#8c8c8c" class="text" font-family="'Droid Sans'">RESET</text>
<g width="0.699999" x="-0.349999" y="28.4499" stroke="none" stroke-width="0" id="connector85terminal" fill="none" class="terminal" height="0.699999"/>
<line stroke-linecap="round" stroke="#787878" stroke-width="0.699999" x1="0.349999" id="connector49pin" y1="36" x2="14.75" fill="none" class="pin" y2="36"/>
<text x="16.15" y="36.6999" text-anchor="start" stroke="none" stroke-width="0" font-size="3.49999" fill="#8c8c8c" class="text" font-family="'Droid Sans'">RESET2</text>
<rect width="0.699999" x="-0.349999" y="35.6499" stroke="none" stroke-width="0" id="connector49terminal" fill="none" class="terminal" height="0.699999"/>
<line stroke-linecap="round" stroke="#787878" stroke-width="0.699999" x1="0.349999" id="connector58pin" y1="43.2" x2="14.75" fill="none" class="pin" y2="43.2"/>
<text x="16.15" y="43.8999" text-anchor="start" stroke="none" stroke-width="0" font-size="3.49999" fill="#8c8c8c" class="text" font-family="'Droid Sans'">AREF</text>
<g width="0.699999" x="-0.349999" y="42.8499" stroke="none" stroke-width="0" id="connector58terminal" fill="none" class="terminal" height="0.699999"/>
<line stroke-linecap="round" stroke="#787878" stroke-width="0.699999" x1="0.349999" id="connector84pin" y1="50.4" x2="14.75" fill="none" class="pin" y2="50.4"/>
<text x="16.15" y="51.0999" text-anchor="start" stroke="none" stroke-width="0" font-size="3.49999" fill="#8c8c8c" class="text" font-family="'Droid Sans'">ioref</text>
<g width="0.699999" x="-0.349999" y="50.0499" stroke="none" stroke-width="0" id="connector84terminal" fill="none" class="terminal" height="0.699999"/>
<line stroke-linecap="round" stroke="#787878" stroke-width="0.699999" x1="0.349999" id="connector0pin" y1="64.8" x2="14.75" fill="none" class="pin" y2="64.8"/>
<text x="16.15" y="65.4999" text-anchor="start" stroke="none" stroke-width="0" font-size="3.49999" fill="#8c8c8c" class="text" font-family="'Droid Sans'">A0</text>
<g width="0.699999" x="-0.349999" y="64.4499" stroke="none" stroke-width="0" id="connector0terminal" fill="none" class="terminal" height="0.699999"/>
<line stroke-linecap="round" stroke="#787878" stroke-width="0.699999" x1="0.349999" id="connector1pin" y1="72" x2="14.75" fill="none" class="pin" y2="72"/>
<text x="16.15" y="72.6999" text-anchor="start" stroke="none" stroke-width="0" font-size="3.49999" fill="#8c8c8c" class="text" font-family="'Droid Sans'">A1</text>
<g width="0.699999" x="-0.349999" y="71.6499" stroke="none" stroke-width="0" id="connector1terminal" fill="none" class="terminal" height="0.699999"/>
<line stroke-linecap="round" stroke="#787878" stroke-width="0.699999" x1="0.349999" id="connector2pin" y1="79.2" x2="14.75" fill="none" class="pin" y2="79.2"/>
<text x="16.15" y="79.8999" text-anchor="start" stroke="none" stroke-width="0" font-size="3.49999" fill="#8c8c8c" class="text" font-family="'Droid Sans'">A2</text>
<g width="0.699999" x="-0.349999" y="78.8499" stroke="none" stroke-width="0" id="connector2terminal" fill="none" class="terminal" height="0.699999"/>
<line stroke-linecap="round" stroke="#787878" stroke-width="0.699999" x1="0.349999" id="connector3pin" y1="86.4" x2="14.75" fill="none" class="pin" y2="86.4"/>
<text x="16.15" y="87.0999" text-anchor="start" stroke="none" stroke-width="0" font-size="3.49999" fill="#8c8c8c" class="text" font-family="'Droid Sans'">A3</text>
<g width="0.699999" x="-0.349999" y="86.0499" stroke="none" stroke-width="0" id="connector3terminal" fill="none" class="terminal" height="0.699999"/>
<line stroke-linecap="round" stroke="none" stroke-width="0" x1="0.349999" id="connector48pin" y1="93.6" x2="14.75" fill="none" class="pin" y2="93.6"/>
<rect width="0.699999" x="-0.349999" y="93.2499" stroke="none" stroke-width="0" id="connector48terminal" fill="none" class="terminal" height="0.699999"/>
<line stroke-linecap="round" stroke="none" stroke-width="0" x1="0.349999" id="connector45pin" y1="93.6" x2="14.75" fill="none" class="pin" y2="93.6"/>
<rect width="0.699999" x="-0.349999" y="93.2499" stroke="none" stroke-width="0" id="connector45terminal" fill="none" class="terminal" height="0.699999"/>
<line stroke-linecap="round" stroke="none" stroke-width="0" x1="0.349999" id="connector4pin" y1="93.6" x2="14.75" fill="none" class="pin" y2="93.6"/>
<g width="0.699999" x="-0.349999" y="93.2499" stroke="none" stroke-width="0" id="connector4terminal" fill="none" class="terminal" height="0.699999"/>
<line stroke-linecap="round" stroke="none" stroke-width="0" x1="0.349999" id="connector39pin" y1="93.6" x2="14.75" fill="none" class="pin" y2="93.6"/>
<rect width="0.699999" x="-0.349999" y="93.2499" stroke="none" stroke-width="0" id="connector39terminal" fill="none" class="terminal" height="0.699999"/>
<line stroke-linecap="round" stroke="none" stroke-width="0" x1="0.349999" id="connector47pin" y1="93.6" x2="14.75" fill="none" class="pin" y2="93.6"/>
<rect width="0.699999" x="-0.349999" y="93.2499" stroke="none" stroke-width="0" id="connector47terminal" fill="none" class="terminal" height="0.699999"/>
<line stroke-linecap="round" stroke="none" stroke-width="0" x1="0.349999" id="connector42pin" y1="93.6" x2="14.75" fill="none" class="pin" y2="93.6"/>
<rect width="0.699999" x="-0.349999" y="93.2499" stroke="none" stroke-width="0" id="connector42terminal" fill="none" class="terminal" height="0.699999"/>
<line stroke-linecap="round" stroke="#787878" stroke-width="0.699999" x1="0.349999" id="connector59pin" y1="93.6" x2="14.75" fill="none" class="pin" y2="93.6"/>
<text x="16.15" y="94.2999" text-anchor="start" stroke="none" stroke-width="0" font-size="3.49999" fill="#8c8c8c" class="text" font-family="'Droid Sans'">A4/SDA</text>
<g width="0.699999" x="-0.349999" y="93.2499" stroke="none" stroke-width="0" id="connector59terminal" fill="none" class="terminal" height="0.699999"/>
<line stroke-linecap="round" stroke="none" stroke-width="0" x1="0.349999" id="connector5pin" y1="100.8" x2="14.75" fill="none" class="pin" y2="100.8"/>
<g width="0.699999" x="-0.349999" y="100.45" stroke="none" stroke-width="0" id="connector5terminal" fill="none" class="terminal" height="0.699999"/>
<line stroke-linecap="round" stroke="#787878" stroke-width="0.699999" x1="0.349999" id="connector60pin" y1="100.8" x2="14.75" fill="none" class="pin" y2="100.8"/>
<text x="16.15" y="101.5" text-anchor="start" stroke="none" stroke-width="0" font-size="3.49999" fill="#8c8c8c" class="text" font-family="'Droid Sans'">A5/SCL</text>
<g width="0.699999" x="-0.349999" y="100.45" stroke="none" stroke-width="0" id="connector60terminal" fill="none" class="terminal" height="0.699999"/>
<line stroke-linecap="round" stroke="#787878" stroke-width="0.699999" x1="0.349999" id="connector91pin" y1="136.8" x2="14.75" fill="none" class="pin" y2="136.8"/>
<text x="16.15" y="137.5" text-anchor="start" stroke="none" stroke-width="0" font-size="3.49999" fill="#8c8c8c" class="text" font-family="'Droid Sans'">N/C</text>
<g width="0.699999" x="-0.349999" y="136.45" stroke="none" stroke-width="0" id="connector91terminal" fill="none" class="terminal" height="0.699999"/>
<line stroke-linecap="round" stroke="none" stroke-width="0" x1="57.6" id="connector88pin" y1="150.85" x2="57.6" fill="none" class="pin" y2="165.25"/>
<g width="0.699999" x="57.2499" y="165.25" stroke="none" stroke-width="0" id="connector88terminal" fill="none" class="terminal" height="0.699999"/>
<line stroke-linecap="round" stroke="none" stroke-width="0" x1="57.6" id="connector57pin" y1="150.85" x2="57.6" fill="none" class="pin" y2="165.25"/>
<g width="0.699999" x="57.2499" y="165.25" stroke="none" stroke-width="0" id="connector57terminal" fill="none" class="terminal" height="0.699999"/>
<line stroke-linecap="round" stroke="none" stroke-width="0" x1="57.6" id="connector44pin" y1="150.85" x2="57.6" fill="none" class="pin" y2="165.25"/>
<rect width="0.699999" x="57.2499" y="165.25" stroke="none" stroke-width="0" id="connector44terminal" fill="none" class="terminal" height="0.699999"/>
<line stroke-linecap="round" stroke="none" stroke-width="0" x1="57.6" id="connector50pin" y1="150.85" x2="57.6" fill="none" class="pin" y2="165.25"/>
<rect width="0.699999" x="57.2499" y="165.25" stroke="none" stroke-width="0" id="connector50terminal" fill="none" class="terminal" height="0.699999"/>
<line stroke-linecap="round" stroke="#787878" stroke-width="0.699999" x1="57.6" id="connector89pin" y1="150.85" x2="57.6" fill="none" class="pin" y2="165.25"/>
<g transform="matrix(1, 0, 0, 1, 58.2999, 149.45)">
<g>
<g transform="rotate(270)">
<g>
<text x="0" y="0" text-anchor="start" stroke="none" stroke-width="0" font-size="3.49999" fill="#8c8c8c" class="text" font-family="'Droid Sans'">GND</text>
</g>
</g>
</g>
</g>
<g width="0.699999" x="57.2499" y="165.25" stroke="none" stroke-width="0" id="connector89terminal" fill="none" class="terminal" height="0.699999"/>
<line stroke-linecap="round" stroke="#787878" stroke-width="0.699999" x1="36" id="connector86pin" y1="0.349999" x2="36" fill="none" class="pin" y2="14.75"/>
<g transform="matrix(1, 0, 0, 1, 36.6999, 16.15)">
<g>
<g transform="rotate(270)">
<g>
<text x="0" y="0" text-anchor="end" stroke="none" stroke-width="0" font-size="3.49999" fill="#8c8c8c" class="text" font-family="'Droid Sans'">3V3</text>
</g>
</g>
</g>
</g>
<g width="0.699999" x="35.6499" y="-0.349999" stroke="none" stroke-width="0" id="connector86terminal" fill="none" class="terminal" height="0.699999"/>
<line stroke-linecap="round" stroke="none" stroke-width="0" x1="50.4" id="connector40pin" y1="0.349999" x2="50.4" fill="none" class="pin" y2="14.75"/>
<rect width="0.699999" x="50.0499" y="-0.349999" stroke="none" stroke-width="0" id="connector40terminal" fill="none" class="terminal" height="0.699999"/>
<line stroke-linecap="round" stroke="none" stroke-width="0" x1="50.4" id="connector46pin" y1="0.349999" x2="50.4" fill="none" class="pin" y2="14.75"/>
<rect width="0.699999" x="50.0499" y="-0.349999" stroke="none" stroke-width="0" id="connector46terminal" fill="none" class="terminal" height="0.699999"/>
<line stroke-linecap="round" stroke="#787878" stroke-width="0.699999" x1="50.4" id="connector87pin" y1="0.349999" x2="50.4" fill="none" class="pin" y2="14.75"/>
<g transform="matrix(1, 0, 0, 1, 51.0999, 16.15)">
<g>
<g transform="rotate(270)">
<g>
<text x="0" y="0" text-anchor="end" stroke="none" stroke-width="0" font-size="3.49999" fill="#8c8c8c" class="text" font-family="'Droid Sans'">5V</text>
</g>
</g>
</g>
</g>
<g width="0.699999" x="50.0499" y="-0.349999" stroke="none" stroke-width="0" id="connector87terminal" fill="none" class="terminal" height="0.699999"/>
<line stroke-linecap="round" stroke="#787878" stroke-width="0.699999" x1="64.8" id="connector90pin" y1="0.349999" x2="64.8" fill="none" class="pin" y2="14.75"/>
<g transform="matrix(1, 0, 0, 1, 65.4999, 16.15)">
<g>
<g transform="rotate(270)">
<g>
<text x="0" y="0" text-anchor="end" stroke="none" stroke-width="0" font-size="3.49999" fill="#8c8c8c" class="text" font-family="'Droid Sans'">VIN</text>
</g>
</g>
</g>
</g>
<g width="0.699999" x="64.4499" y="-0.349999" stroke="none" stroke-width="0" id="connector90terminal" fill="none" class="terminal" height="0.699999"/>
<text x="54.4501" y="76.4498" text-anchor="middle" stroke="none" stroke-width="0" font-size="4.25001" id="label" fill="#000000" class="text" font-family="'Droid Sans'">Arduino</text>
<text x="54.4501" y="80.9833" text-anchor="middle" stroke="none" stroke-width="0" font-size="4.25001" id="label" fill="#000000" class="text" font-family="'Droid Sans'">Uno</text>
<text x="54.4501" y="85.5167" text-anchor="middle" stroke="none" stroke-width="0" font-size="4.25001" id="label" fill="#000000" class="text" font-family="'Droid Sans'">(Rev3)</text>
</g>
</g></g><g partID='58210'><g transform='translate(165.816,152.981)' ><g transform='matrix(0,1,-1,0,0,0)'  ><g id="schematic">
<g>
<path d="M13.5,14.966L9.9,14.966c-0.193,0,-0.35,-0.156,-0.35,-0.35s0.156,-0.35,0.35,-0.35L13.5,14.266c0.193,0,0.35,0.156,0.35,0.35S13.694,14.966,13.5,14.966z"/>
</g>
<g>
<path d="M9.9,14.966L6.3,14.966c-0.193,0,-0.35,-0.156,-0.35,-0.35s0.157,-0.35,0.35,-0.35l3.6,0c0.193,0,0.35,0.156,0.35,0.35S10.093,14.966,9.9,14.966z"/>
</g>
<g>
<polygon fill="#FFFFFF" points="9.9,14.616,6.3,7.416,9.9,7.416,13.5,7.416"/>
<path d="M9.9,15.398L5.734,7.066l8.333,0L9.9,15.398zM6.866,7.766L9.9,13.834l3.034,-6.068L6.866,7.766z"/>
</g>
<g>
<path d="M9.9,14.841c-0.124,0,-0.225,-0.101,-0.225,-0.225l0,-7.2c0,-0.124,0.101,-0.225,0.225,-0.225s0.225,0.101,0.225,0.225l0,7.2C10.124,14.74,10.024,14.841,9.9,14.841z"/>
</g>
<g>
<path d="M1.8,12.141c-0.058,0,-0.115,-0.021,-0.159,-0.065c-0.088,-0.088,-0.088,-0.23,0,-0.318l2.34,-2.341c0.088,-0.088,0.23,-0.088,0.318,0s0.088,0.23,0,0.318l-2.34,2.341C1.915,12.12,1.858,12.141,1.8,12.141z"/>
</g>
<g>
<path d="M2.16,15.381c-0.058,0,-0.115,-0.021,-0.159,-0.065c-0.088,-0.088,-0.088,-0.23,0,-0.318l2.34,-2.34c0.088,-0.088,0.23,-0.088,0.318,0s0.088,0.23,0,0.318l-2.34,2.34C2.276,15.359,2.218,15.381,2.16,15.381z"/>
</g>
<g id="connector0pin">
<path d="M9.9,22.166c-0.193,0,-0.35,-0.156,-0.35,-0.35l0,-7.2c0,-0.193,0.156,-0.35,0.35,-0.35s0.35,0.156,0.35,0.35l0,7.2C10.249,22.01,10.093,22.166,9.9,22.166z" fill="#787878"/>
</g>
<g id="connector0terminal">
<rect width="0.001" x="9.9" y="21.816" fill="none" height="0.001"/>
</g>
<g transform="matrix(1, 0, 0, 1, 3.429, 6.4262)">
<g>
<g transform="rotate(270)">
<g>
<g enable-background="new    ">
<path d="M-11.647,5.54l-0.891,0L-12.538,5.388l0.342,-0.372c0.049,-0.053,0.093,-0.101,0.131,-0.145s0.071,-0.086,0.099,-0.128c0.026,-0.042,0.047,-0.084,0.062,-0.125c0.015,-0.043,0.021,-0.088,0.021,-0.138c0,-0.038,-0.005,-0.072,-0.017,-0.102s-0.027,-0.054,-0.047,-0.075c-0.021,-0.02,-0.045,-0.035,-0.073,-0.046s-0.06,-0.016,-0.094,-0.016c-0.062,0,-0.118,0.013,-0.167,0.038c-0.051,0.024,-0.098,0.057,-0.143,0.096l-0.1,-0.116c0.025,-0.023,0.055,-0.046,0.084,-0.065c0.029,-0.021,0.063,-0.039,0.097,-0.054s0.071,-0.026,0.109,-0.036c0.038,-0.008,0.079,-0.013,0.121,-0.013c0.063,0,0.119,0.009,0.169,0.026c0.051,0.018,0.094,0.043,0.129,0.076c0.035,0.032,0.063,0.072,0.082,0.119c0.019,0.048,0.028,0.101,0.028,0.16c0,0.056,-0.009,0.108,-0.026,0.158c-0.017,0.05,-0.041,0.1,-0.07,0.148c-0.031,0.048,-0.066,0.097,-0.109,0.146c-0.041,0.049,-0.087,0.1,-0.136,0.152L-12.32,5.37l0,0.008l0.673,0L-11.647,5.54z" fill="#787878"/>
</g>
</g>
</g>
</g>
</g>
<g id="connector1pin">
<path d="M9.9,7.766c-0.193,0,-0.35,-0.157,-0.35,-0.35l0,-7.2c0,-0.193,0.156,-0.35,0.35,-0.35s0.35,0.157,0.35,0.35l0,7.2C10.249,7.609,10.093,7.766,9.9,7.766z" fill="#787878"/>
</g>
<g id="connector1terminal">
<polygon fill="none" points="9.9,0.216,9.901,0.216,9.901,0.216"/>
</g>
<g transform="matrix(1, 0, 0, 1, 3.429, 1.3462)">
<g>
<g transform="rotate(270)">
<g>
<g enable-background="new    ">
<path d="M-2.616,5.54l-0.172,0L-2.788,4.648c0,-0.028,0,-0.058,0,-0.09s0.001,-0.063,0.002,-0.095c0.001,-0.032,0.002,-0.063,0.003,-0.092c0.001,-0.028,0.002,-0.054,0.002,-0.076c-0.011,0.012,-0.021,0.021,-0.029,0.03s-0.017,0.017,-0.026,0.024s-0.018,0.016,-0.028,0.025c-0.01,0.008,-0.021,0.019,-0.035,0.03l-0.145,0.118l-0.094,-0.12l0.374,-0.292l0.146,0L-2.618,5.54z" fill="#787878"/>
</g>
</g>
</g>
</g>
</g>
<g>
<path d="M0.18,13.536l1.08,-2.521l1.44,1.438L0.18,13.536z"/>
</g>
<g>
<path d="M0.54,16.776l1.08,-2.521l1.438,1.438L0.54,16.776z"/>
</g>
</g>
</g></g></g><g partID='58370'><g transform='translate(165.816,73.7812)' ><g transform='matrix(0,1,-1,0,0,0)'  ><g id="schematic">
<g>
<path d="M13.5,14.966L9.9,14.966c-0.193,0,-0.35,-0.156,-0.35,-0.35s0.156,-0.35,0.35,-0.35L13.5,14.266c0.193,0,0.35,0.156,0.35,0.35S13.694,14.966,13.5,14.966z"/>
</g>
<g>
<path d="M9.9,14.966L6.3,14.966c-0.193,0,-0.35,-0.156,-0.35,-0.35s0.157,-0.35,0.35,-0.35l3.6,0c0.193,0,0.35,0.156,0.35,0.35S10.093,14.966,9.9,14.966z"/>
</g>
<g>
<polygon fill="#FFFFFF" points="9.9,14.616,6.3,7.416,9.9,7.416,13.5,7.416"/>
<path d="M9.9,15.398L5.734,7.066l8.333,0L9.9,15.398zM6.866,7.766L9.9,13.834l3.034,-6.068L6.866,7.766z"/>
</g>
<g>
<path d="M9.9,14.841c-0.124,0,-0.225,-0.101,-0.225,-0.225l0,-7.2c0,-0.124,0.101,-0.225,0.225,-0.225s0.225,0.101,0.225,0.225l0,7.2C10.124,14.74,10.024,14.841,9.9,14.841z"/>
</g>
<g>
<path d="M1.8,12.141c-0.058,0,-0.115,-0.021,-0.159,-0.065c-0.088,-0.088,-0.088,-0.23,0,-0.318l2.34,-2.341c0.088,-0.088,0.23,-0.088,0.318,0s0.088,0.23,0,0.318l-2.34,2.341C1.915,12.12,1.858,12.141,1.8,12.141z"/>
</g>
<g>
<path d="M2.16,15.381c-0.058,0,-0.115,-0.021,-0.159,-0.065c-0.088,-0.088,-0.088,-0.23,0,-0.318l2.34,-2.34c0.088,-0.088,0.23,-0.088,0.318,0s0.088,0.23,0,0.318l-2.34,2.34C2.276,15.359,2.218,15.381,2.16,15.381z"/>
</g>
<g id="connector0pin">
<path d="M9.9,22.166c-0.193,0,-0.35,-0.156,-0.35,-0.35l0,-7.2c0,-0.193,0.156,-0.35,0.35,-0.35s0.35,0.156,0.35,0.35l0,7.2C10.249,22.01,10.093,22.166,9.9,22.166z" fill="#787878"/>
</g>
<g id="connector0terminal">
<rect width="0.001" x="9.9" y="21.816" fill="none" height="0.001"/>
</g>
<g transform="matrix(1, 0, 0, 1, 3.429, 6.4262)">
<g>
<g transform="rotate(270)">
<g>
<g enable-background="new    ">
<path d="M-11.647,5.54l-0.891,0L-12.538,5.388l0.342,-0.372c0.049,-0.053,0.093,-0.101,0.131,-0.145s0.071,-0.086,0.099,-0.128c0.026,-0.042,0.047,-0.084,0.062,-0.125c0.015,-0.043,0.021,-0.088,0.021,-0.138c0,-0.038,-0.005,-0.072,-0.017,-0.102s-0.027,-0.054,-0.047,-0.075c-0.021,-0.02,-0.045,-0.035,-0.073,-0.046s-0.06,-0.016,-0.094,-0.016c-0.062,0,-0.118,0.013,-0.167,0.038c-0.051,0.024,-0.098,0.057,-0.143,0.096l-0.1,-0.116c0.025,-0.023,0.055,-0.046,0.084,-0.065c0.029,-0.021,0.063,-0.039,0.097,-0.054s0.071,-0.026,0.109,-0.036c0.038,-0.008,0.079,-0.013,0.121,-0.013c0.063,0,0.119,0.009,0.169,0.026c0.051,0.018,0.094,0.043,0.129,0.076c0.035,0.032,0.063,0.072,0.082,0.119c0.019,0.048,0.028,0.101,0.028,0.16c0,0.056,-0.009,0.108,-0.026,0.158c-0.017,0.05,-0.041,0.1,-0.07,0.148c-0.031,0.048,-0.066,0.097,-0.109,0.146c-0.041,0.049,-0.087,0.1,-0.136,0.152L-12.32,5.37l0,0.008l0.673,0L-11.647,5.54z" fill="#787878"/>
</g>
</g>
</g>
</g>
</g>
<g id="connector1pin">
<path d="M9.9,7.766c-0.193,0,-0.35,-0.157,-0.35,-0.35l0,-7.2c0,-0.193,0.156,-0.35,0.35,-0.35s0.35,0.157,0.35,0.35l0,7.2C10.249,7.609,10.093,7.766,9.9,7.766z" fill="#787878"/>
</g>
<g id="connector1terminal">
<polygon fill="none" points="9.9,0.216,9.901,0.216,9.901,0.216"/>
</g>
<g transform="matrix(1, 0, 0, 1, 3.429, 1.3462)">
<g>
<g transform="rotate(270)">
<g>
<g enable-background="new    ">
<path d="M-2.616,5.54l-0.172,0L-2.788,4.648c0,-0.028,0,-0.058,0,-0.09s0.001,-0.063,0.002,-0.095c0.001,-0.032,0.002,-0.063,0.003,-0.092c0.001,-0.028,0.002,-0.054,0.002,-0.076c-0.011,0.012,-0.021,0.021,-0.029,0.03s-0.017,0.017,-0.026,0.024s-0.018,0.016,-0.028,0.025c-0.01,0.008,-0.021,0.019,-0.035,0.03l-0.145,0.118l-0.094,-0.12l0.374,-0.292l0.146,0L-2.618,5.54z" fill="#787878"/>
</g>
</g>
</g>
</g>
</g>
<g>
<path d="M0.18,13.536l1.08,-2.521l1.44,1.438L0.18,13.536z"/>
</g>
<g>
<path d="M0.54,16.776l1.08,-2.521l1.438,1.438L0.54,16.776z"/>
</g>
</g>
</g></g></g><g partID='58390'><g transform='translate(151.55,86.7778)' ><g transform='matrix(-1,0,0,-1,0,0)'  ><g xmlns="http://www.w3.org/2000/svg" id="schematic">
<line stroke-linecap="round" stroke="#000000" stroke-width="0.432002" xmlns="http://www.w3.org/2000/svg" x1="7.55002" y1="3.096" x2="8.63003" class="other" y2="0.216"/>
<line stroke-linecap="round" stroke="#000000" stroke-width="0.432002" xmlns="http://www.w3.org/2000/svg" x1="8.63003" y1="0.216" x2="10.43" class="other" y2="5.976"/>
<line stroke-linecap="round" stroke="#000000" stroke-width="0.432002" xmlns="http://www.w3.org/2000/svg" x1="10.43" y1="5.976" x2="12.23" class="other" y2="0.216"/>
<line stroke-linecap="round" stroke="#000000" stroke-width="0.432002" xmlns="http://www.w3.org/2000/svg" x1="12.23" y1="0.216" x2="14.03" class="other" y2="5.976"/>
<line stroke-linecap="round" stroke="#000000" stroke-width="0.432002" xmlns="http://www.w3.org/2000/svg" x1="14.03" y1="5.976" x2="15.8301" class="other" y2="0.216"/>
<line stroke-linecap="round" stroke="#000000" stroke-width="0.432002" xmlns="http://www.w3.org/2000/svg" x1="15.8301" y1="0.216" x2="17.6301" class="other" y2="5.976"/>
<line stroke-linecap="round" stroke="#000000" stroke-width="0.432002" xmlns="http://www.w3.org/2000/svg" x1="17.6301" y1="5.976" x2="19.4301" class="other" y2="0.216"/>
<line stroke-linecap="round" stroke="#000000" stroke-width="0.432002" xmlns="http://www.w3.org/2000/svg" x1="19.4301" y1="0.216" x2="21.2301" class="other" y2="5.976"/>
<line stroke-linecap="round" stroke="#000000" stroke-width="0.432002" xmlns="http://www.w3.org/2000/svg" x1="21.2301" y1="5.976" x2="21.9501" class="other" y2="3.096"/>
<line stroke-linecap="round" connectorname="2" stroke="#787878" stroke-width="0.700001" xmlns="http://www.w3.org/2000/svg" id="connector1pin" x1="29.1502" y1="3.096" x2="21.9501" class="pin" y2="3.096"/>
<g width="0.000283466" x="29.1502" y="3.096" stroke="none" stroke-width="0" xmlns="http://www.w3.org/2000/svg" id="connector1terminal" fill="none" class="terminal" height="0.000283465"/>
<text x="25.5501" y="2.046" text-anchor="middle" stroke="none" stroke-width="0" xmlns="http://www.w3.org/2000/svg" font-size="2.50001" fill="#8c8c8c" class="text" font-family="'Droid Sans'">2</text>
<line stroke-linecap="round" connectorname="1" stroke="#787878" stroke-width="0.700001" xmlns="http://www.w3.org/2000/svg" id="connector0pin" x1="0.350001" y1="3.096" x2="7.55002" class="pin" y2="3.096"/>
<g width="0.000283466" x="0.350001" y="3.096" stroke="none" stroke-width="0" xmlns="http://www.w3.org/2000/svg" id="connector0terminal" fill="none" class="terminal" height="0.000283465"/>
<text x="3.95001" y="2.046" text-anchor="middle" stroke="none" stroke-width="0" xmlns="http://www.w3.org/2000/svg" font-size="2.50001" fill="#8c8c8c" class="text" font-family="'Droid Sans'">1</text>
</g>
</g></g></g><g partID='58300'><g transform='translate(122.05,123.786)' ><g xmlns="http://www.w3.org/2000/svg" id="schematic">
<line stroke-linecap="round" stroke="#000000" stroke-width="0.432002" xmlns="http://www.w3.org/2000/svg" x1="7.55002" y1="3.096" x2="8.63003" class="other" y2="0.216"/>
<line stroke-linecap="round" stroke="#000000" stroke-width="0.432002" xmlns="http://www.w3.org/2000/svg" x1="8.63003" y1="0.216" x2="10.43" class="other" y2="5.976"/>
<line stroke-linecap="round" stroke="#000000" stroke-width="0.432002" xmlns="http://www.w3.org/2000/svg" x1="10.43" y1="5.976" x2="12.23" class="other" y2="0.216"/>
<line stroke-linecap="round" stroke="#000000" stroke-width="0.432002" xmlns="http://www.w3.org/2000/svg" x1="12.23" y1="0.216" x2="14.03" class="other" y2="5.976"/>
<line stroke-linecap="round" stroke="#000000" stroke-width="0.432002" xmlns="http://www.w3.org/2000/svg" x1="14.03" y1="5.976" x2="15.8301" class="other" y2="0.216"/>
<line stroke-linecap="round" stroke="#000000" stroke-width="0.432002" xmlns="http://www.w3.org/2000/svg" x1="15.8301" y1="0.216" x2="17.6301" class="other" y2="5.976"/>
<line stroke-linecap="round" stroke="#000000" stroke-width="0.432002" xmlns="http://www.w3.org/2000/svg" x1="17.6301" y1="5.976" x2="19.4301" class="other" y2="0.216"/>
<line stroke-linecap="round" stroke="#000000" stroke-width="0.432002" xmlns="http://www.w3.org/2000/svg" x1="19.4301" y1="0.216" x2="21.2301" class="other" y2="5.976"/>
<line stroke-linecap="round" stroke="#000000" stroke-width="0.432002" xmlns="http://www.w3.org/2000/svg" x1="21.2301" y1="5.976" x2="21.9501" class="other" y2="3.096"/>
<line stroke-linecap="round" connectorname="2" stroke="#787878" stroke-width="0.700001" xmlns="http://www.w3.org/2000/svg" id="connector1pin" x1="29.1502" y1="3.096" x2="21.9501" class="pin" y2="3.096"/>
<g width="0.000283466" x="29.1502" y="3.096" stroke="none" stroke-width="0" xmlns="http://www.w3.org/2000/svg" id="connector1terminal" fill="none" class="terminal" height="0.000283465"/>
<text x="25.5501" y="2.046" text-anchor="middle" stroke="none" stroke-width="0" xmlns="http://www.w3.org/2000/svg" font-size="2.50001" fill="#8c8c8c" class="text" font-family="'Droid Sans'">2</text>
<line stroke-linecap="round" connectorname="1" stroke="#787878" stroke-width="0.700001" xmlns="http://www.w3.org/2000/svg" id="connector0pin" x1="0.350001" y1="3.096" x2="7.55002" class="pin" y2="3.096"/>
<g width="0.000283466" x="0.350001" y="3.096" stroke="none" stroke-width="0" xmlns="http://www.w3.org/2000/svg" id="connector0terminal" fill="none" class="terminal" height="0.000283465"/>
<text x="3.95001" y="2.046" text-anchor="middle" stroke="none" stroke-width="0" xmlns="http://www.w3.org/2000/svg" font-size="2.50001" fill="#8c8c8c" class="text" font-family="'Droid Sans'">1</text>
</g>
</g></g><g partID='58280'><g transform='translate(165.816,116.981)' ><g transform='matrix(0,1,-1,0,0,0)'  ><g id="schematic">
<g>
<path d="M13.5,14.966L9.9,14.966c-0.193,0,-0.35,-0.156,-0.35,-0.35s0.156,-0.35,0.35,-0.35L13.5,14.266c0.193,0,0.35,0.156,0.35,0.35S13.694,14.966,13.5,14.966z"/>
</g>
<g>
<path d="M9.9,14.966L6.3,14.966c-0.193,0,-0.35,-0.156,-0.35,-0.35s0.157,-0.35,0.35,-0.35l3.6,0c0.193,0,0.35,0.156,0.35,0.35S10.093,14.966,9.9,14.966z"/>
</g>
<g>
<polygon fill="#FFFFFF" points="9.9,14.616,6.3,7.416,9.9,7.416,13.5,7.416"/>
<path d="M9.9,15.398L5.734,7.066l8.333,0L9.9,15.398zM6.866,7.766L9.9,13.834l3.034,-6.068L6.866,7.766z"/>
</g>
<g>
<path d="M9.9,14.841c-0.124,0,-0.225,-0.101,-0.225,-0.225l0,-7.2c0,-0.124,0.101,-0.225,0.225,-0.225s0.225,0.101,0.225,0.225l0,7.2C10.124,14.74,10.024,14.841,9.9,14.841z"/>
</g>
<g>
<path d="M1.8,12.141c-0.058,0,-0.115,-0.021,-0.159,-0.065c-0.088,-0.088,-0.088,-0.23,0,-0.318l2.34,-2.341c0.088,-0.088,0.23,-0.088,0.318,0s0.088,0.23,0,0.318l-2.34,2.341C1.915,12.12,1.858,12.141,1.8,12.141z"/>
</g>
<g>
<path d="M2.16,15.381c-0.058,0,-0.115,-0.021,-0.159,-0.065c-0.088,-0.088,-0.088,-0.23,0,-0.318l2.34,-2.34c0.088,-0.088,0.23,-0.088,0.318,0s0.088,0.23,0,0.318l-2.34,2.34C2.276,15.359,2.218,15.381,2.16,15.381z"/>
</g>
<g id="connector0pin">
<path d="M9.9,22.166c-0.193,0,-0.35,-0.156,-0.35,-0.35l0,-7.2c0,-0.193,0.156,-0.35,0.35,-0.35s0.35,0.156,0.35,0.35l0,7.2C10.249,22.01,10.093,22.166,9.9,22.166z" fill="#787878"/>
</g>
<g id="connector0terminal">
<rect width="0.001" x="9.9" y="21.816" fill="none" height="0.001"/>
</g>
<g transform="matrix(1, 0, 0, 1, 3.429, 6.4262)">
<g>
<g transform="rotate(270)">
<g>
<g enable-background="new    ">
<path d="M-11.647,5.54l-0.891,0L-12.538,5.388l0.342,-0.372c0.049,-0.053,0.093,-0.101,0.131,-0.145s0.071,-0.086,0.099,-0.128c0.026,-0.042,0.047,-0.084,0.062,-0.125c0.015,-0.043,0.021,-0.088,0.021,-0.138c0,-0.038,-0.005,-0.072,-0.017,-0.102s-0.027,-0.054,-0.047,-0.075c-0.021,-0.02,-0.045,-0.035,-0.073,-0.046s-0.06,-0.016,-0.094,-0.016c-0.062,0,-0.118,0.013,-0.167,0.038c-0.051,0.024,-0.098,0.057,-0.143,0.096l-0.1,-0.116c0.025,-0.023,0.055,-0.046,0.084,-0.065c0.029,-0.021,0.063,-0.039,0.097,-0.054s0.071,-0.026,0.109,-0.036c0.038,-0.008,0.079,-0.013,0.121,-0.013c0.063,0,0.119,0.009,0.169,0.026c0.051,0.018,0.094,0.043,0.129,0.076c0.035,0.032,0.063,0.072,0.082,0.119c0.019,0.048,0.028,0.101,0.028,0.16c0,0.056,-0.009,0.108,-0.026,0.158c-0.017,0.05,-0.041,0.1,-0.07,0.148c-0.031,0.048,-0.066,0.097,-0.109,0.146c-0.041,0.049,-0.087,0.1,-0.136,0.152L-12.32,5.37l0,0.008l0.673,0L-11.647,5.54z" fill="#787878"/>
</g>
</g>
</g>
</g>
</g>
<g id="connector1pin">
<path d="M9.9,7.766c-0.193,0,-0.35,-0.157,-0.35,-0.35l0,-7.2c0,-0.193,0.156,-0.35,0.35,-0.35s0.35,0.157,0.35,0.35l0,7.2C10.249,7.609,10.093,7.766,9.9,7.766z" fill="#787878"/>
</g>
<g id="connector1terminal">
<polygon fill="none" points="9.9,0.216,9.901,0.216,9.901,0.216"/>
</g>
<g transform="matrix(1, 0, 0, 1, 3.429, 1.3462)">
<g>
<g transform="rotate(270)">
<g>
<g enable-background="new    ">
<path d="M-2.616,5.54l-0.172,0L-2.788,4.648c0,-0.028,0,-0.058,0,-0.09s0.001,-0.063,0.002,-0.095c0.001,-0.032,0.002,-0.063,0.003,-0.092c0.001,-0.028,0.002,-0.054,0.002,-0.076c-0.011,0.012,-0.021,0.021,-0.029,0.03s-0.017,0.017,-0.026,0.024s-0.018,0.016,-0.028,0.025c-0.01,0.008,-0.021,0.019,-0.035,0.03l-0.145,0.118l-0.094,-0.12l0.374,-0.292l0.146,0L-2.618,5.54z" fill="#787878"/>
</g>
</g>
</g>
</g>
</g>
<g>
<path d="M0.18,13.536l1.08,-2.521l1.44,1.438L0.18,13.536z"/>
</g>
<g>
<path d="M0.54,16.776l1.08,-2.521l1.438,1.438L0.54,16.776z"/>
</g>
</g>
</g></g></g><g partID='66840'><line stroke-linecap='round' stroke='#25cc35' x1='108' y1='119.682' x2='122.4' y2='83.6817' stroke-width='0.4' /></g><g partID='66860'><line stroke-linecap='round' stroke='#25cc35' x1='122.4' y1='83.6817' x2='144' y2='83.6817' stroke-width='0.4' /></g><g partID='69340'><line stroke-linecap='round' stroke='#ab58a2' x1='144' y1='162.882' x2='122.4' y2='162.882' stroke-width='0.4' /></g><g partID='69360'><line stroke-linecap='round' stroke='#ab58a2' x1='151.2' y1='162.882' x2='144' y2='162.882' stroke-width='0.4' /></g><g partID='73000'><line stroke-linecap='round' stroke='#ff7300' x1='144' y1='126.882' x2='151.2' y2='126.882' stroke-width='0.4' /></g><g partID='62290'><line stroke-linecap='round' stroke='#404040' x1='108.087' y1='119.62' x2='122.548' y2='83.5739' stroke-width='0.699998' /></g><g partID='62300'><line stroke-linecap='round' stroke='#404040' x1='108' y1='119.682' x2='108.087' y2='119.62' stroke-width='0.699998' /></g><g partID='63050'><line stroke-linecap='round' stroke='#404040' x1='129.551' y1='126.775' x2='108' y2='126.882' stroke-width='0.699998' /></g><g partID='63060'><line stroke-linecap='round' stroke='#404040' x1='122.4' y1='126.882' x2='129.551' y2='126.775' stroke-width='0.699998' /></g><g partID='63170'><line stroke-linecap='round' stroke='#404040' x1='194.313' y1='177.233' x2='165.6' y2='126.882' stroke-width='0.699998' /></g><g partID='63180'><line stroke-linecap='round' stroke='#404040' x1='194.313' y1='177.233' x2='194.313' y2='177.233' stroke-width='0.699998' /></g><g partID='64170'><line stroke-linecap='round' stroke='#404040' x1='151.2' y1='83.6817' x2='144' y2='83.6817' stroke-width='0.699998' /></g><g partID='64350'><line stroke-linecap='round' stroke='#404040' x1='108.087' y1='134.185' x2='122.4' y2='162.882' stroke-width='0.699998' /></g><g partID='64360'><line stroke-linecap='round' stroke='#404040' x1='108' y1='134.082' x2='108.087' y2='134.185' stroke-width='0.699998' /></g><g partID='72510'><line stroke-linecap='round' stroke='#404040' x1='194.313' y1='177.233' x2='57.5999' y2='177.282' stroke-width='0.699998' /></g><g partID='72520'><line stroke-linecap='round' stroke='#404040' x1='165.6' y1='162.882' x2='194.313' y2='177.233' stroke-width='0.699998' /></g><circle  fill="black" cx="194.313" cy="177.233" r="1.44" stroke-width="0" stroke="none" /><g partID='72770'><line stroke-linecap='round' stroke='#404040' x1='194.313' y1='177.233' x2='165.6' y2='83.6817' stroke-width='0.699998' /></g><circle  fill="black" cx="194.313" cy="177.233" r="1.44" stroke-width="0" stroke="none" /><g partID='58180' id='partLabel'><g transform='translate(125.324,147.813)' ><g font-size='5' font-style='normal' font-weight='normal' fill='#000000' font-family="'DroidSans'" id='schematicLabel' fill-opacity='1' stroke='none' ><text x='0' y='3.75'>R1</text><text x='0' y='8.75'>150&#x3a9;</text></g></g></g><g partID='58370' id='partLabel'><g transform='translate(149.33,61.2467)' ><g font-size='5' font-style='normal' font-weight='normal' fill='#000000' font-family="'DroidSans'" id='schematicLabel' fill-opacity='1' stroke='none' ><text x='0' y='3.75'>LED3</text><text x='0' y='8.75'>Green (555nm)</text></g></g></g><g partID='58280' id='partLabel'><g transform='translate(140.386,106.471)' ><g font-size='5' font-style='normal' font-weight='normal' fill='#000000' font-family="'DroidSans'" id='schematicLabel' fill-opacity='1' stroke='none' ><text x='0' y='3.75'>LED2</text><text x='0' y='8.75'>Green (555nm)</text></g></g></g><g partID='58390' id='partLabel'><g transform='translate(122.454,66.3025)' ><g font-size='5' font-style='normal' font-weight='normal' fill='#000000' font-family="'DroidSans'" id='schematicLabel' fill-opacity='1' stroke='none' ><text x='0' y='3.75'>R3</text><text x='0' y='8.75'>150&#x3a9;</text></g></g></g><g partID='58300' id='partLabel'><g transform='translate(115.529,109.637)' ><g font-size='5' font-style='normal' font-weight='normal' fill='#000000' font-family="'DroidSans'" id='schematicLabel' fill-opacity='1' stroke='none' ><text x='0' y='3.75'>R2</text><text x='0' y='8.75'>150&#x3a9;</text></g></g></g><g partID='58210' id='partLabel'><g transform='translate(146.1,166.784)' ><g font-size='5' font-style='normal' font-weight='normal' fill='#000000' font-family="'DroidSans'" id='schematicLabel' fill-opacity='1' stroke='none' ><text x='0' y='3.75'>LED1</text><text x='0' y='8.75'>Green (555nm)</text></g></g></g><g partID='58150' id='partLabel'><g transform='translate(82.1524,0)' ><g font-size='5' font-style='normal' font-weight='normal' fill='#000000' font-family="'DroidSans'" id='schematicLabel' fill-opacity='1' stroke='none' ><text x='0' y='3.75'>Blink! Schematic</text></g></g></g></svg>