<?xml version="1.0" encoding="utf-8"?>
<!-- Generator: Adobe Illustrator 23.1.0, SVG Export Plug-In . SVG Version: 6.00 Build 0)  -->
<svg version="1.1" id="Layer_1" xmlns="http://www.w3.org/2000/svg" xmlns:xlink="http://www.w3.org/1999/xlink" x="0px" y="0px"
	 viewBox="0 0 432 432" style="enable-background:new 0 0 432 432;" xml:space="preserve">
<style type="text/css">
	.st0{fill:none;stroke:#000000;stroke-width:20.5929;stroke-miterlimit:8;}
	.st1{fill:none;stroke:#000000;stroke-width:20.5929;stroke-linecap:round;stroke-linejoin:bevel;stroke-miterlimit:8;}
	.st2{fill:none;stroke:#000000;stroke-width:11.6235;stroke-miterlimit:8;}
	.st3{fill:none;stroke:#000000;stroke-width:20.5928;stroke-linecap:square;}
</style>
<sodipodi:namedview  bordercolor="#666666" borderopacity="1.0" fit-margin-bottom="5" fit-margin-left="5" fit-margin-right="5" fit-margin-top="5" id="base" pagecolor="#ffffff" showgrid="false" units="px">
	</sodipodi:namedview>
<g id="g9111_1_" transform="translate(-84.389798,575.6803)">
	<g id="g9026_1_" transform="matrix(2,0,0,2,-48.78371,72.148387)">
		<path id="path9028_1_" class="st0" d="M88.1-198.5H119"/>
		<path id="path9030_1_" class="st0" d="M242.6-198.5l30.9,0"/>
		<path id="path9032_1_" class="st1" d="M242.6-198.5l-10.3-20.6l-20.6,41.2l-20.6-41.2l-20.6,41.2l-20.6-41.2l-20.6,41.2L119-198.5
			"/>
	</g>
	<g id="g9097_1_" transform="matrix(-1.41421,1.41421,-1.41421,-1.41421,694.55568,13.013639)">
		<path id="path9099_1_" class="st2" d="M25,352.4v41.2"/>
		<path id="path9101_1_" class="st2" d="M17.4,373l7.6-20.6L32,373"/>
	</g>
	<g id="g9103_1_" transform="matrix(-1.41421,1.41421,-1.41421,-1.41421,689.79058,20.663529)">
		<path id="path9105_1_" class="st2" d="M-13.7,352.7v41.2"/>
		<path id="path9107_1_" class="st2" d="M-21.3,373.3l7.6-20.6l7.1,20.6"/>
	</g>
	<path id="path9109_1_" class="st3" d="M146.2-328.4c0-91,73.8-164.7,164.7-164.7s164.7,73.8,164.7,164.7s-73.8,164.7-164.7,164.7
		S146.2-237.4,146.2-328.4z"/>
</g>
</svg>
